<svg xmlns="http://www.w3.org/2000/svg" width="800" height="600" viewBox="0 0 800 600"><defs><linearGradient id="gloss" x1="0" y1="0" x2="0" y2="1"><stop offset="0" stop-color="#e6e8e9"/><stop offset="0.25" stop-color="#dfe1e3"/><stop offset="1" stop-color="#fafcfe"/></linearGradient></defs><rect width="800" height="600" fill="#dfe1e3"/><rect width="800" height="590" fill="url(#gloss)"/><g><rect width="800" height="590" fill="#f2f3f4"/><rect y="41" width="800" height="1" fill="rgba(255,255,255,0.04)"/><rect y="258" width="800" height="3" fill="rgba(255,255,255,0.03)"/><rect y="325" width="800" height="3" fill="rgba(255,255,255,0.05)"/><rect y="287" width="800" height="1" fill="rgba(255,255,255,0.04)"/><rect y="455" width="800" height="2" fill="rgba(255,255,255,0.02)"/><rect y="97" width="800" height="2" fill="rgba(255,255,255,0.05)"/><rect y="293" width="800" height="3" fill="rgba(255,255,255,0.04)"/><rect y="568" width="800" height="3" fill="rgba(255,255,255,0.03)"/><rect y="412" width="800" height="3" fill="rgba(255,255,255,0.05)"/><rect y="119" width="800" height="2" fill="rgba(255,255,255,0.03)"/><rect y="178" width="800" height="1" fill="rgba(255,255,255,0.03)"/><rect y="534" width="800" height="3" fill="rgba(255,255,255,0.06)"/><rect y="460" width="800" height="2" fill="rgba(255,255,255,0.04)"/><rect y="234" width="800" height="1" fill="rgba(255,255,255,0.02)"/><rect y="275" width="800" height="2" fill="rgba(255,255,255,0.04)"/><rect y="325" width="800" height="3" fill="rgba(255,255,255,0.02)"/><rect y="247" width="800" height="2" fill="rgba(255,255,255,0.04)"/><rect y="213" width="800" height="3" fill="rgba(255,255,255,0.06)"/><rect y="107" width="800" height="3" fill="rgba(255,255,255,0.06)"/><rect y="478" width="800" height="3" fill="rgba(255,255,255,0.03)"/><rect y="338" width="800" height="1" fill="rgba(255,255,255,0.04)"/><rect y="300" width="800" height="2" fill="rgba(255,255,255,0.03)"/><rect y="502" width="800" height="3" fill="rgba(255,255,255,0.03)"/><rect y="213" width="800" height="2" fill="rgba(255,255,255,0.02)"/><rect y="97" width="800" height="2" fill="rgba(255,255,255,0.03)"/><rect y="404" width="800" height="2" fill="rgba(255,255,255,0.03)"/><rect y="310" width="800" height="1" fill="rgba(0,0,0,0.02)"/><rect y="407" width="800" height="2" fill="rgba(0,0,0,0.05)"/><rect y="348" width="800" height="2" fill="rgba(0,0,0,0.02)"/><rect y="36" width="800" height="1" fill="rgba(0,0,0,0.04)"/><rect y="564" width="800" height="1" fill="rgba(0,0,0,0.03)"/><rect y="57" width="800" height="2" fill="rgba(0,0,0,0.03)"/><rect y="156" width="800" height="2" fill="rgba(0,0,0,0.02)"/><rect y="98" width="800" height="1" fill="rgba(0,0,0,0.03)"/><rect y="84" width="800" height="1" fill="rgba(0,0,0,0.03)"/><rect y="8" width="800" height="1" fill="rgba(0,0,0,0.02)"/></g><rect y="590" width="800" height="10" fill="#ffffff"/><rect width="800" height="3" fill="rgba(255,255,255,0.35)"/></svg>