<svg xmlns="http://www.w3.org/2000/svg" width="800" height="600" viewBox="0 0 800 600"><defs><linearGradient id="floor" x1="0" y1="0" x2="0" y2="1"><stop offset="0" stop-color="#e3e0db"/><stop offset="1" stop-color="#cfccc5"/></linearGradient></defs><rect width="800" height="600" fill="#f2f4f3"/><rect y="480" width="800" height="120" fill="url(#floor)"/><rect x="40" y="80" width="720" height="120" fill="#c9cbcd"/><rect x="754" y="80" width="6" height="120" fill="#b0b2b4"/><line x1="142" y1="80" x2="142" y2="200" stroke="#b0b2b4" stroke-width="1.5" opacity="0.6"/><line x1="244" y1="80" x2="244" y2="200" stroke="#b0b2b4" stroke-width="1.5" opacity="0.6"/><line x1="346" y1="80" x2="346" y2="200" stroke="#b0b2b4" stroke-width="1.5" opacity="0.6"/><line x1="448" y1="80" x2="448" y2="200" stroke="#b0b2b4" stroke-width="1.5" opacity="0.6"/><line x1="550" y1="80" x2="550" y2="200" stroke="#b0b2b4" stroke-width="1.5" opacity="0.6"/><line x1="652" y1="80" x2="652" y2="200" stroke="#b0b2b4" stroke-width="1.5" opacity="0.6"/><rect x="40" y="200" width="720" height="300" fill="#ffffff"/><rect x="754" y="200" width="6" height="300" fill="#e2e4e6"/><rect x="40" y="470" width="720" height="18" fill="#aeb2b5"/><rect x="40" y="488" width="720" height="102" fill="#eceff0"/><rect x="120" y="424" width="26" height="46" fill="#e42840" opacity="0.85" rx="4"/><rect x="116" y="416" width="34" height="8" fill="#c9ccd0"/><rect x="200" y="410" width="26" height="60" fill="#7fb2d9" opacity="0.85" rx="4"/><rect x="196" y="402" width="34" height="8" fill="#c9ccd0"/><rect x="280" y="432" width="26" height="38" fill="#f5c518" opacity="0.85" rx="4"/><rect x="276" y="424" width="34" height="8" fill="#c9ccd0"/><rect x="520" y="380" width="80" height="14" fill="#2b2e33"/><rect x="545" y="330" width="14" height="54" fill="#2b2e33"/><rect x="530" y="316" width="44" height="16" rx="6" fill="#3a3e44"/></svg>